<?xml version="1.0" encoding="utf-8"?>
<!-- Generator: Adobe Illustrator 25.2.0, SVG Export Plug-In . SVG Version: 6.00 Build 0)  -->
<svg version="1.1" id="Layer_1" xmlns="http://www.w3.org/2000/svg" xmlns:xlink="http://www.w3.org/1999/xlink" x="0px" y="0px"
	 viewBox="0 0 24 24" style="enable-background:new 0 0 24 24;" xml:space="preserve">
<style type="text/css">
	.st0{fill:none;}
	.st1{fill:#FFFFFF;}
</style>
<path class="st0" d="M0,0h24v24H0V0z"/>
<path d="M18.5,13c-1.9,0-3.5,1.6-3.5,3.5s1.6,3.5,3.5,3.5s3.5-1.6,3.5-3.5S20.4,13,18.5,13z M20.5,17h-4v-1h4V17z M13.6,17
	c0-0.2-0.1-0.3-0.1-0.5c0-2.8,2.2-5,5-5c0.9,0,1.8,0.3,2.5,0.7V3H3v14H13.6z M12,10.5L5,7V5l7,3.5L19,5v2L12,10.5z"/>
<rect x="18" y="14.5" class="st1" width="1" height="4"/>
</svg>
