<?xml version="1.0" encoding="utf-8"?>
<!-- Generator: Adobe Illustrator 25.2.0, SVG Export Plug-In . SVG Version: 6.00 Build 0)  -->
<svg version="1.1" id="Layer_1" xmlns="http://www.w3.org/2000/svg" xmlns:xlink="http://www.w3.org/1999/xlink" x="0px" y="0px"
	 viewBox="0 0 260.1 58.9" style="enable-background:new 0 0 260.1 58.9;" xml:space="preserve">
<style type="text/css">
	.st0{fill:none;}
	.st1{fill:#33323D;}
	.st2{font-family:'IbarraRealNova-Bold';}
	.st3{font-size:22px;}
</style>
<g>
	<rect x="9.1" y="8.8" class="st0" width="248.9" height="22.9"/>
	<text transform="matrix(1 0 0 1 9.0882 27.1827)" class="st1 st2 st3">Michael S Payne II</text>
	<g>
		<g>
			<path class="st1" d="M19.3,42.9c0,0.7-0.1,1.4-0.4,1.9c-0.2,0.5-0.6,0.9-1.1,1.2c-0.5,0.3-1.2,0.4-2,0.4c-0.8,0-1.5-0.1-2-0.4
				s-0.9-0.7-1.1-1.2c-0.2-0.5-0.4-1.2-0.4-2v-6.2h1.3V43c0,0.8,0.2,1.4,0.6,1.7s0.9,0.6,1.7,0.6c0.5,0,0.9-0.1,1.2-0.3
				c0.3-0.2,0.6-0.4,0.8-0.8c0.2-0.3,0.3-0.8,0.3-1.3v-6.4h1.2V42.9z"/>
			<path class="st1" d="M29,46.3h-1.5l-2.6-4l-2.6,4h-1.4l3.3-4.9L21,36.7h1.5l2.4,3.7l2.4-3.7h1.4l-3.1,4.6L29,46.3z"/>
			<path class="st1" d="M40.8,46.3h-1.3l-1.8-4.1h-2.6v4.1h-1.2v-9.6h3.7c0.7,0,1.3,0.1,1.7,0.3c0.5,0.2,0.8,0.5,1,0.9
				c0.2,0.4,0.3,0.9,0.3,1.4c0,0.5-0.1,1-0.3,1.3c-0.2,0.3-0.4,0.6-0.7,0.8s-0.6,0.4-0.9,0.5L40.8,46.3z M37.2,41.1
				c0.7,0,1.3-0.1,1.7-0.4s0.6-0.7,0.6-1.3c0-0.6-0.2-1-0.5-1.3s-0.8-0.4-1.4-0.4h-2.4v3.4H37.2z"/>
			<path class="st1" d="M42.9,46.3v-9.6H49l0,1.1h-4.8v3.1h4.3V42h-4.3v3.2l5,0v1.1H42.9z"/>
			<path class="st1" d="M54.5,46.4c-0.5,0-0.9-0.1-1.3-0.2c-0.4-0.1-0.8-0.3-1.2-0.5s-0.6-0.5-0.9-0.8c-0.2-0.3-0.4-0.7-0.4-1.2H52
				c0.1,0.4,0.2,0.7,0.5,0.9c0.2,0.2,0.5,0.4,0.9,0.6c0.3,0.1,0.7,0.2,1.1,0.2c0.5,0,0.9-0.1,1.2-0.2c0.4-0.1,0.6-0.3,0.8-0.5
				s0.3-0.5,0.3-0.8c0-0.3-0.1-0.5-0.2-0.8s-0.3-0.4-0.6-0.5c-0.2-0.1-0.5-0.3-0.9-0.3l-1.9-0.4c-0.7-0.2-1.3-0.4-1.7-0.8
				C51.2,40.5,51,40,51,39.3c0-0.6,0.1-1,0.4-1.5s0.7-0.7,1.2-1c0.5-0.2,1.1-0.4,1.8-0.4c0.8,0,1.4,0.1,1.9,0.4s0.9,0.6,1.2,1
				c0.3,0.4,0.4,0.9,0.4,1.4h-1.3c0-0.4-0.2-0.8-0.4-1c-0.2-0.3-0.5-0.4-0.8-0.5c-0.3-0.1-0.7-0.2-1.1-0.2c-0.3,0-0.5,0-0.8,0.1
				S53.2,37.9,53,38c-0.2,0.1-0.4,0.3-0.5,0.5s-0.2,0.4-0.2,0.7c0,0.3,0.1,0.6,0.4,0.8c0.2,0.2,0.7,0.4,1.3,0.6l1.8,0.4
				c0.5,0.1,0.9,0.3,1.2,0.5c0.3,0.2,0.5,0.4,0.7,0.7c0.2,0.3,0.3,0.5,0.3,0.8c0.1,0.3,0.1,0.5,0.1,0.8c0,0.5-0.1,0.9-0.4,1.3
				c-0.3,0.4-0.7,0.7-1.2,0.9C55.9,46.3,55.2,46.4,54.5,46.4z"/>
			<path class="st1" d="M60.2,46.3v-9.6h6.1l0,1.1h-4.8v3.1h4.3V42h-4.3v3.2l5,0v1.1H60.2z"/>
			<path class="st1" d="M67.8,46.3l3.5-9.6h1.4l3.5,9.6h-1.3l-0.9-2.6H70l-1,2.6H67.8z M70.3,42.5h3.3L72,37.9L70.3,42.5z"/>
			<path class="st1" d="M84.8,46.3h-1.3l-1.8-4.1h-2.6v4.1H78v-9.6h3.7c0.7,0,1.3,0.1,1.7,0.3c0.5,0.2,0.8,0.5,1,0.9
				c0.2,0.4,0.3,0.9,0.3,1.4c0,0.5-0.1,1-0.3,1.3c-0.2,0.3-0.4,0.6-0.7,0.8s-0.6,0.4-0.9,0.5L84.8,46.3z M81.3,41.1
				c0.7,0,1.3-0.1,1.7-0.4s0.6-0.7,0.6-1.3c0-0.6-0.2-1-0.5-1.3s-0.8-0.4-1.4-0.4h-2.4v3.4H81.3z"/>
			<path class="st1" d="M90.5,36.5c0.7,0,1.3,0.1,1.8,0.4c0.5,0.3,0.9,0.7,1.3,1.1c0.3,0.5,0.5,1,0.6,1.5h-1.3
				c-0.1-0.4-0.2-0.7-0.4-1c-0.2-0.3-0.5-0.5-0.8-0.7c-0.3-0.2-0.7-0.3-1.2-0.3c-0.6,0-1.1,0.1-1.5,0.4c-0.4,0.3-0.7,0.7-0.9,1.3
				c-0.2,0.6-0.3,1.3-0.3,2.2c0,1.3,0.2,2.3,0.7,2.9c0.5,0.6,1.1,0.9,2,0.9c0.5,0,0.8-0.1,1.2-0.3c0.3-0.2,0.6-0.4,0.8-0.8
				s0.3-0.7,0.4-1h1.3c0,0.4-0.2,0.8-0.3,1.2c-0.2,0.4-0.4,0.7-0.7,1c-0.3,0.3-0.7,0.5-1.1,0.7c-0.4,0.2-0.9,0.3-1.5,0.3
				c-0.9,0-1.6-0.2-2.2-0.6c-0.6-0.4-1.1-1-1.4-1.7s-0.5-1.6-0.5-2.7c0-1,0.2-1.9,0.5-2.7c0.3-0.7,0.8-1.3,1.4-1.7
				C88.9,36.7,89.7,36.5,90.5,36.5z"/>
			<path class="st1" d="M102.6,41.8h-5.2v4.4h-1.2v-9.6h1.2v4.1h5.2v-4.1h1.2v9.6h-1.2V41.8z"/>
			<path class="st1" d="M106.4,46.3v-9.6h6.1l0,1.1h-4.8v3.1h4.3V42h-4.3v3.2l5,0v1.1H106.4z"/>
			<path class="st1" d="M121.5,46.3h-1.3l-1.8-4.1h-2.6v4.1h-1.2v-9.6h3.7c0.7,0,1.3,0.1,1.7,0.3c0.5,0.2,0.8,0.5,1,0.9
				c0.2,0.4,0.3,0.9,0.3,1.4c0,0.5-0.1,1-0.3,1.3c-0.2,0.3-0.4,0.6-0.7,0.8s-0.6,0.4-0.9,0.5L121.5,46.3z M118,41.1
				c0.7,0,1.3-0.1,1.7-0.4s0.6-0.7,0.6-1.3c0-0.6-0.2-1-0.5-1.3s-0.8-0.4-1.4-0.4h-2.4v3.4H118z"/>
			<path class="st1" d="M129.6,36.5c0.5,0,0.9,0.1,1.3,0.3s0.7,0.4,1,0.7c0.2,0.3,0.4,0.7,0.4,1.1c0,0.2,0,0.4-0.1,0.6
				c-0.1,0.2-0.2,0.4-0.3,0.6c-0.2,0.2-0.4,0.5-0.7,0.7c-0.3,0.2-0.7,0.5-1.1,0.7l2.1,2.5c0.1-0.1,0.2-0.3,0.3-0.5
				c0.1-0.2,0.2-0.5,0.3-0.9s0.2-0.7,0.2-1.1h1.2c-0.1,0.5-0.2,0.9-0.3,1.3c-0.1,0.4-0.3,0.7-0.5,1.1s-0.4,0.6-0.6,1l1.6,1.9h-1.4
				l-0.9-1.1c-0.5,0.4-1,0.7-1.5,0.9c-0.5,0.2-1,0.3-1.5,0.3c-0.6,0-1.2-0.1-1.6-0.3c-0.4-0.2-0.8-0.5-1-0.9
				c-0.2-0.4-0.3-0.8-0.3-1.3c0-0.4,0.1-0.8,0.2-1.1c0.2-0.3,0.4-0.7,0.8-0.9c0.3-0.3,0.8-0.6,1.3-0.8c-0.2-0.3-0.5-0.5-0.6-0.8
				s-0.3-0.5-0.4-0.7c-0.1-0.3-0.1-0.5-0.1-0.8c0-0.4,0.1-0.8,0.3-1.1c0.2-0.3,0.5-0.6,0.9-0.8C128.7,36.6,129.2,36.5,129.6,36.5z
				 M129,41.7c-0.5,0.3-0.8,0.6-1.1,0.9c-0.3,0.4-0.4,0.8-0.4,1.2c0,0.3,0.1,0.6,0.3,0.8c0.2,0.2,0.4,0.4,0.7,0.5
				c0.3,0.1,0.6,0.2,0.9,0.2c0.4,0,0.7-0.1,1.1-0.2c0.4-0.2,0.7-0.4,1-0.7L129,41.7z M129.7,37.4c-0.4,0-0.7,0.1-1,0.4
				c-0.2,0.2-0.3,0.5-0.3,0.8c0,0.2,0,0.4,0.1,0.6s0.2,0.4,0.3,0.6c0.1,0.2,0.2,0.3,0.3,0.4l0.2,0.3c0.5-0.3,0.8-0.5,1.1-0.7
				c0.2-0.2,0.4-0.4,0.5-0.6s0.1-0.4,0.1-0.6c0-0.3-0.1-0.5-0.2-0.7c-0.1-0.2-0.3-0.3-0.6-0.4C130.2,37.4,129.9,37.3,129.7,37.4z"/>
			<path class="st1" d="M150.4,36.7l-2.8,9.6h-1.1l-2.1-7.5l-2.1,7.5h-1.1l-2.8-9.6h1.2l2.1,7.7l2.2-7.7h1l2.2,7.7l2.2-7.7H150.4z"
				/>
			<path class="st1" d="M152,46.3v-9.6h6.1l0,1.1h-4.8v3.1h4.3V42h-4.3v3.2l5,0v1.1H152z"/>
			<path class="st1" d="M160.3,46.3v-9.6h3.1c1.2,0,2.1,0.2,2.7,0.6c0.6,0.4,0.9,1.1,0.9,1.9c0,0.5-0.1,0.9-0.4,1.3
				c-0.3,0.4-0.7,0.7-1.4,0.9c0.4,0.1,0.7,0.2,1,0.3s0.5,0.3,0.6,0.5s0.3,0.4,0.3,0.7c0.1,0.2,0.1,0.5,0.1,0.8
				c0,0.9-0.3,1.5-0.9,1.9c-0.6,0.4-1.5,0.6-2.8,0.6H160.3z M161.5,40.9h2.1c0.3,0,0.5,0,0.8-0.1c0.2,0,0.5-0.1,0.7-0.3
				c0.2-0.1,0.4-0.3,0.5-0.5c0.1-0.2,0.2-0.5,0.2-0.8c0-0.6-0.2-1-0.6-1.2c-0.4-0.3-1-0.4-1.7-0.4h-1.9V40.9z M161.5,45.2h1.9
				c0.8,0,1.4-0.1,1.8-0.4c0.4-0.3,0.6-0.7,0.6-1.2c0-0.4-0.1-0.7-0.3-1s-0.5-0.4-0.8-0.5c-0.4-0.1-0.7-0.2-1.2-0.2h-2.1V45.2z"/>
			<path class="st1" d="M172.3,36.7c0,0,0.1,0,0.3,0c0.2,0,0.3,0,0.6,0c0.2,0,0.5,0,0.7,0c0.2,0,0.5,0,0.7,0c1.2,0,2.1,0.2,2.9,0.6
				s1.3,0.9,1.6,1.6c0.3,0.7,0.5,1.6,0.5,2.6c0,1.1-0.2,2-0.6,2.7s-0.9,1.3-1.7,1.6c-0.8,0.4-1.7,0.6-2.9,0.6h-2.1V36.7z
				 M173.6,37.7v7.5h0.8c0.8,0,1.5-0.1,2-0.4c0.6-0.2,1-0.6,1.3-1.2c0.3-0.6,0.5-1.3,0.5-2.2c0-0.9-0.1-1.7-0.4-2.2
				c-0.3-0.5-0.7-0.9-1.3-1.2s-1.2-0.3-2-0.3H173.6z"/>
			<path class="st1" d="M181.6,46.3v-9.6h6.1l0,1.1h-4.8v3.1h4.3V42h-4.3v3.2l5,0v1.1H181.6z"/>
			<path class="st1" d="M197.1,36.7l-3.4,9.6h-1.5l-3.4-9.6h1.2l2.9,8.2l2.9-8.2H197.1z"/>
			<path class="st1" d="M198.8,46.3v-9.6h6.1l0,1.1H200v3.1h4.3V42H200v3.2l5,0v1.1H198.8z"/>
			<path class="st1" d="M207,36.7h1.3v8.5h4.5v1.1H207L207,36.7z"/>
			<path class="st1" d="M218.4,46.4c-0.9,0-1.6-0.2-2.2-0.6c-0.6-0.4-1.1-0.9-1.4-1.7c-0.3-0.7-0.5-1.6-0.5-2.7
				c0-1.1,0.2-1.9,0.5-2.7c0.3-0.7,0.8-1.3,1.5-1.7c0.6-0.4,1.4-0.6,2.2-0.6c0.9,0,1.6,0.2,2.2,0.6c0.6,0.4,1.1,1,1.4,1.7
				c0.3,0.7,0.5,1.6,0.5,2.7c0,1-0.2,1.9-0.5,2.7c-0.3,0.7-0.8,1.3-1.4,1.7C220,46.2,219.2,46.4,218.4,46.4z M218.4,45.3
				c0.6,0,1.1-0.1,1.5-0.4c0.4-0.3,0.7-0.7,1-1.3c0.2-0.6,0.3-1.3,0.3-2.2c0-0.9-0.1-1.6-0.3-2.2s-0.5-1-1-1.3
				c-0.4-0.3-0.9-0.4-1.5-0.4c-0.6,0-1.1,0.1-1.5,0.4s-0.7,0.7-1,1.3c-0.2,0.6-0.3,1.3-0.3,2.2c0,0.9,0.1,1.6,0.3,2.2
				c0.2,0.6,0.5,1,1,1.3S217.8,45.3,218.4,45.3z"/>
			<path class="st1" d="M224.5,46.3v-9.6h3.3c0.7,0,1.3,0.1,1.8,0.3s1,0.6,1.3,1c0.3,0.5,0.5,1,0.5,1.7c0,0.6-0.1,1.2-0.4,1.6
				c-0.3,0.4-0.7,0.8-1.2,1s-1.1,0.4-1.8,0.4h-2.2v3.6H224.5z M225.8,41.7h2.1c0.7,0,1.2-0.2,1.6-0.6c0.4-0.4,0.6-0.9,0.6-1.5
				c0-0.6-0.2-1.1-0.6-1.4s-1-0.5-1.6-0.5h-2.1V41.7z"/>
			<path class="st1" d="M235.9,42.3v1l-3.4,0v-1L235.9,42.3z"/>
		</g>
	</g>
</g>
<rect x="816.2" y="74.1" class="st0" width="38.8" height="25.7"/>
<text transform="matrix(1 0 0 1 816.2449 92.5511)" class="st1 st2 st3">MP</text>
</svg>
